<svg width="20.000214" height="20.000000" viewBox="0 0 20.0002 20" fill="none" xmlns="http://www.w3.org/2000/svg" xmlns:xlink="http://www.w3.org/1999/xlink">
	<desc>
			Created with Pixso.
	</desc>
	<defs>
		<clipPath id="clip3_105">
			<rect id="facebook-logo" width="20.000208" height="20.000000" fill="white" fill-opacity="0"/>
		</clipPath>
	</defs>
	<rect id="facebook-logo" width="20.000208" height="20.000000" fill="#FFFFFF" fill-opacity="0"/>
	<g clip-path="url(#clip3_105)">
		<path id="Vector" d="M14.99 0L12.4 0C9.49 0 7.6 1.93 7.6 4.92L7.6 7.19L5 7.19C4.77 7.19 4.59 7.37 4.59 7.59L4.59 10.88C4.59 11.11 4.77 11.29 5 11.29L7.6 11.29L7.6 19.59C7.6 19.81 7.79 20 8.01 20L11.41 20C11.64 20 11.82 19.81 11.82 19.59L11.82 11.29L14.87 11.29C15.1 11.29 15.28 11.11 15.28 10.88L15.28 7.59C15.28 7.49 15.24 7.38 15.16 7.31C15.08 7.23 14.98 7.19 14.87 7.19L11.82 7.19L11.82 5.26C11.82 4.34 12.04 3.87 13.25 3.87L14.99 3.87C15.22 3.87 15.4 3.69 15.4 3.46L15.4 0.41C15.4 0.18 15.22 0 14.99 0Z" fill="#FFFFFF" fill-opacity="1.000000" fill-rule="nonzero"/>
	</g>
</svg>
