<svg width="274.023438" height="283.203125" viewBox="0 0 274.023 283.203" fill="none" xmlns="http://www.w3.org/2000/svg" xmlns:xlink="http://www.w3.org/1999/xlink">
	<desc>
			Created with Pixso.
	</desc>
	<defs/>
	<g opacity="0.020000">
		<path id="II" d="M0 275.19L0 283.2Q20.11 282.03 63.08 282.03Q101.95 282.03 123.63 283.2L123.63 275.19C116.86 274.93 111.65 274.41 108 273.63Q105.17 272.89 102.79 271.43Q100.74 270.17 99.02 268.35C96.67 265.75 95.18 262.43 94.53 258.39C93.88 254.23 93.55 248.37 93.55 240.82L93.55 42.38C93.55 34.7 93.88 28.84 94.53 24.8C95.18 20.76 96.67 17.44 99.02 14.84C101.49 12.23 104.49 10.54 108 9.76C111.52 8.85 116.73 8.26 123.63 8L123.63 0Q101.95 1.17 63.08 1.17Q20.11 1.17 0 0L0 8Q10.15 8.39 15.42 9.76C18.94 10.54 21.87 12.23 24.21 14.84C26.69 17.44 28.25 20.83 28.9 25C29.55 29.03 29.88 34.83 29.88 42.38L29.88 240.82C29.88 248.5 29.55 254.36 28.9 258.39Q28.07 263.57 25.23 267.18Q24.75 267.79 24.21 268.35Q22.84 269.89 21.19 271.03Q18.63 272.8 15.42 273.63C11.91 274.41 6.77 274.93 0 275.19ZM150.39 275.19L150.39 283.2Q170.5 282.03 213.47 282.03Q252.34 282.03 274.02 283.2L274.02 275.19C267.25 274.93 262.04 274.41 258.39 273.63C254.88 272.72 251.88 270.96 249.41 268.35C247.07 265.75 245.57 262.43 244.92 258.39C244.27 254.23 243.94 248.37 243.94 240.82L243.94 42.38C243.94 34.7 244.27 28.84 244.92 24.8C245.57 20.76 247.07 17.44 249.41 14.84C251.88 12.23 254.88 10.54 258.39 9.76C261.91 8.85 267.12 8.26 274.02 8L274.02 0Q252.34 1.17 213.47 1.17Q170.5 1.17 150.39 0L150.39 8Q160.54 8.39 165.82 9.76C169.33 10.54 172.26 12.23 174.6 14.84C177.08 17.44 178.64 20.83 179.29 25C179.94 29.03 180.27 34.83 180.27 42.38L180.27 240.82C180.27 248.5 179.94 254.36 179.29 258.39Q178.46 263.57 175.62 267.18Q175.14 267.79 174.6 268.35Q173.23 269.89 171.58 271.03Q169.02 272.8 165.82 273.63C162.3 274.41 157.16 274.93 150.39 275.19Z" fill="#FFFFFF" fill-opacity="1.000000" fill-rule="evenodd"/>
	</g>
</svg>
