<svg width="408.007812" height="283.984375" viewBox="0 0 408.008 283.984" fill="none" xmlns="http://www.w3.org/2000/svg" xmlns:xlink="http://www.w3.org/1999/xlink">
	<desc>
			Created with Pixso.
	</desc>
	<defs/>
	<g opacity="0.020000">
		<path id="IV" d="M0 275.19L0 283.2Q20.11 282.03 63.08 282.03Q101.95 282.03 123.63 283.2L123.63 275.19C116.86 274.93 111.65 274.41 108 273.63Q105.17 272.89 102.79 271.43Q100.74 270.17 99.02 268.35C96.67 265.75 95.18 262.43 94.53 258.39C93.88 254.23 93.55 248.37 93.55 240.82L93.55 42.38C93.55 34.7 93.88 28.84 94.53 24.8C95.18 20.76 96.67 17.44 99.02 14.84C101.49 12.23 104.49 10.54 108 9.76C111.52 8.85 116.73 8.26 123.63 8L123.63 0Q101.95 1.17 63.08 1.17Q20.11 1.17 0 0L0 8Q10.15 8.39 15.42 9.76C18.94 10.54 21.87 12.23 24.21 14.84C26.69 17.44 28.25 20.83 28.9 25C29.55 29.03 29.88 34.83 29.88 42.38L29.88 240.82C29.88 248.5 29.55 254.36 28.9 258.39Q28.07 263.57 25.23 267.18Q24.75 267.79 24.21 268.35Q22.84 269.89 21.19 271.03Q18.63 272.8 15.42 273.63C11.91 274.41 6.77 274.93 0 275.19ZM132.03 0L132.03 8C142.18 8.52 150.58 17.05 157.22 33.59L259.18 283.98C264.9 283.72 269.53 283.59 273.04 283.59C276.56 283.59 281.18 283.72 286.91 283.98L371.48 55.46C380.72 29.68 392.9 13.86 408 8L408 0Q395.89 1.17 377.53 1.17Q354.68 1.17 327.73 0L327.73 8C338.8 8.26 347.13 10.87 352.73 15.82C358.46 20.76 361.32 28.64 361.32 39.45Q361.32 57.61 350.19 87.89L300.97 220.7L230.27 41.6Q225.58 29.68 225.58 22.85Q225.58 17.73 228.09 14.66Q229.6 12.82 232.03 11.71C236.45 9.63 243.68 8.39 253.71 8L253.71 0C240.69 0.78 220.44 1.17 192.96 1.17Q156.05 1.17 132.03 0Z" fill="#FFFFFF" fill-opacity="1.000000" fill-rule="evenodd"/>
	</g>
</svg>
