<svg width="275.976562" height="283.984375" viewBox="0 0 275.977 283.984" fill="none" xmlns="http://www.w3.org/2000/svg" xmlns:xlink="http://www.w3.org/1999/xlink">
	<desc>
			Created with Pixso.
	</desc>
	<defs/>
	<g opacity="0.020000">
		<path id="V" d="M0 0L0 8C10.15 8.52 18.55 17.05 25.19 33.59L127.14 283.98C132.87 283.72 137.5 283.59 141.01 283.59C144.53 283.59 149.15 283.72 154.88 283.98L239.45 55.46C248.69 29.68 260.87 13.86 275.97 8L275.97 0C267.9 0.78 257.74 1.17 245.5 1.17Q222.65 1.17 195.7 0L195.7 8C206.77 8.26 215.1 10.87 220.7 15.82C226.43 20.76 229.29 28.64 229.29 39.45Q229.29 57.61 218.16 87.89L168.94 220.7L98.24 41.6Q93.55 29.68 93.55 22.85Q93.55 17.73 96.06 14.66Q97.57 12.82 100 11.71C104.42 9.63 111.65 8.39 121.68 8L121.68 0Q102.14 1.17 60.93 1.17Q24.02 1.17 0 0Z" fill="#FFFFFF" fill-opacity="1.000000" fill-rule="evenodd"/>
	</g>
</svg>
