<svg width="35.054291" height="20.000000" viewBox="0 0 35.0543 20" fill="none" xmlns="http://www.w3.org/2000/svg" xmlns:xlink="http://www.w3.org/1999/xlink">
	<desc>
			Created with Pixso.
	</desc>
	<defs/>
	<path id="Vector" d="M34.86 18.06C34.82 17.97 34.78 17.89 34.74 17.83C34.14 16.73 32.97 15.39 31.26 13.8L31.22 13.76L31.2 13.74L31.19 13.72L31.17 13.72C30.39 12.98 29.9 12.48 29.69 12.23C29.31 11.74 29.23 11.25 29.43 10.75C29.58 10.37 30.13 9.57 31.08 8.36C31.58 7.71 31.97 7.19 32.26 6.81C34.37 4.01 35.28 2.22 35 1.44L34.89 1.26C34.82 1.15 34.63 1.05 34.33 0.96C34.02 0.86 33.63 0.85 33.16 0.91L27.9 0.95C27.82 0.92 27.69 0.92 27.54 0.96C27.38 0.99 27.3 1.01 27.3 1.01L27.21 1.06L27.13 1.11C27.07 1.15 27.01 1.21 26.93 1.3C26.86 1.39 26.8 1.5 26.75 1.62C26.18 3.09 25.53 4.46 24.8 5.73C24.35 6.48 23.93 7.14 23.56 7.69C23.18 8.24 22.86 8.65 22.61 8.91C22.35 9.18 22.12 9.38 21.91 9.54C21.71 9.7 21.55 9.77 21.44 9.74C21.33 9.72 21.23 9.7 21.13 9.67C20.96 9.56 20.82 9.41 20.72 9.22C20.62 9.04 20.55 8.8 20.51 8.51C20.47 8.23 20.45 7.98 20.45 7.77C20.44 7.57 20.44 7.27 20.45 6.9C20.47 6.52 20.47 6.26 20.47 6.13C20.47 5.67 20.48 5.17 20.5 4.62C20.52 4.08 20.53 3.65 20.55 3.34C20.56 3.02 20.56 2.69 20.56 2.33C20.56 1.98 20.54 1.7 20.5 1.5C20.46 1.3 20.39 1.11 20.31 0.92C20.22 0.73 20.1 0.58 19.93 0.48C19.77 0.38 19.57 0.3 19.32 0.23C18.68 0.09 17.86 0.01 16.86 0C14.6 -0.03 13.14 0.12 12.5 0.44C12.24 0.57 12.01 0.75 11.8 0.98C11.58 1.25 11.55 1.4 11.71 1.42C12.44 1.53 12.96 1.79 13.26 2.21L13.37 2.42C13.46 2.58 13.54 2.86 13.63 3.26C13.71 3.67 13.77 4.11 13.79 4.6C13.85 5.48 13.85 6.25 13.79 6.88C13.73 7.51 13.67 8 13.62 8.36C13.56 8.71 13.48 9 13.37 9.21C13.26 9.43 13.19 9.57 13.15 9.62C13.12 9.66 13.09 9.69 13.06 9.71C12.9 9.77 12.74 9.8 12.57 9.8C12.4 9.8 12.19 9.71 11.95 9.54C11.71 9.37 11.45 9.14 11.19 8.84C10.93 8.54 10.64 8.13 10.31 7.59C9.98 7.05 9.64 6.42 9.28 5.69L8.99 5.16C8.81 4.82 8.56 4.33 8.24 3.67C7.93 3.02 7.65 2.39 7.41 1.79C7.31 1.53 7.16 1.34 6.97 1.2L6.88 1.15C6.82 1.1 6.72 1.05 6.58 0.99C6.45 0.94 6.31 0.9 6.16 0.87L1.16 0.91C0.65 0.91 0.31 1.03 0.12 1.26L0.05 1.37C0.01 1.43 0 1.52 0 1.66C0 1.79 0.03 1.96 0.1 2.15C0.83 3.87 1.63 5.52 2.49 7.12C3.34 8.71 4.09 9.99 4.72 10.97C5.35 11.94 6 12.86 6.66 13.72C7.31 14.59 7.75 15.14 7.96 15.38C8.17 15.63 8.34 15.81 8.46 15.93L8.92 16.37C9.21 16.66 9.64 17.01 10.21 17.42C10.77 17.83 11.4 18.23 12.09 18.62C12.77 19.02 13.57 19.34 14.49 19.59C15.4 19.84 16.29 19.94 17.15 19.89L19.25 19.89C19.68 19.85 20 19.72 20.22 19.49L20.29 19.4C20.34 19.33 20.38 19.21 20.43 19.06C20.47 18.91 20.49 18.74 20.49 18.56C20.48 18.04 20.52 17.56 20.61 17.14C20.7 16.72 20.8 16.41 20.92 16.2C21.04 15.98 21.17 15.8 21.31 15.66C21.46 15.51 21.56 15.42 21.62 15.39C21.68 15.36 21.73 15.34 21.77 15.33C22.06 15.23 22.4 15.33 22.8 15.61C23.2 15.9 23.57 16.25 23.91 16.67C24.26 17.09 24.68 17.56 25.16 18.08C25.65 18.61 26.08 19 26.44 19.25L26.81 19.47C27.05 19.62 27.37 19.75 27.76 19.87C28.14 20 28.48 20.03 28.78 19.96L33.45 19.89C33.91 19.89 34.27 19.82 34.53 19.66C34.78 19.51 34.93 19.34 34.98 19.16C35.03 18.98 35.03 18.77 34.99 18.54C34.95 18.31 34.91 18.15 34.86 18.06Z" fill="#FFFFFF" fill-opacity="1.000000" fill-rule="nonzero"/>
</svg>
