<svg width="28.263550" height="20.000000" viewBox="0 0 28.2635 20" fill="none" xmlns="http://www.w3.org/2000/svg" xmlns:xlink="http://www.w3.org/1999/xlink">
	<desc>
			Created with Pixso.
	</desc>
	<defs/>
	<path id="Vector" d="M22.39 0L5.86 0C2.62 0 0 2.62 0 5.86L0 14.13C0 17.37 2.62 20 5.86 20L22.39 20C25.63 20 28.26 17.37 28.26 14.13L28.26 5.86C28.26 2.62 25.63 0 22.39 0ZM18.42 10.4L10.69 14.08C10.48 14.18 10.25 14.03 10.25 13.8L10.25 6.2C10.25 5.97 10.49 5.82 10.7 5.92L18.43 9.84C18.66 9.96 18.65 10.29 18.42 10.4Z" fill="#FFFFFF" fill-opacity="1.000000" fill-rule="nonzero"/>
</svg>
