<?xml version="1.0" standalone="no"?>
<!DOCTYPE svg PUBLIC "-//W3C//DTD SVG 20010904//EN"
 "http://www.w3.org/TR/2001/REC-SVG-20010904/DTD/svg10.dtd">
<svg version="1.0" xmlns="http://www.w3.org/2000/svg"
 width="473.000000pt" height="493.000000pt" viewBox="0 0 473.000000 493.000000"
 preserveAspectRatio="xMidYMid meet">

<g transform="translate(0.000000,493.000000) scale(0.100000,-0.100000)"
fill="#000000" stroke="none">
<path d="M2045 4701 c-177 -13 -421 -89 -650 -201 -640 -313 -1074 -894 -1201
-1610 -27 -151 -27 -569 0 -720 128 -719 570 -1307 1217 -1620 269 -129 510
-192 813 -212 490 -32 950 91 1357 361 329 219 588 514 759 866 113 232 180
457 210 704 16 138 14 426 -5 561 -127 904 -800 1638 -1695 1846 -96 23 -130
25 -405 29 -165 2 -345 0 -400 -4z m1368 -1749 c232 -233 422 -427 422 -432 0
-14 -226 -251 -236 -248 -5 2 -283 277 -619 613 l-610 609 -103 -101 c-56 -56
-333 -332 -616 -612 -282 -281 -517 -511 -522 -511 -11 0 -234 238 -234 250 0
6 331 341 735 745 l734 736 314 -313 c173 -172 504 -503 735 -736z m-85 948
l22 0 0 -351 c0 -327 -1 -350 -17 -338 -9 8 -110 114 -225 236 l-208 223 0
114 c0 67 4 116 10 118 5 2 97 2 202 1 106 -2 203 -3 216 -3z m-874 -667 c50
-49 310 -303 579 -567 l487 -478 0 -561 0 -560 -242 6 c-133 4 -304 7 -380 7
l-138 0 0 303 c0 166 -3 386 -7 490 l-6 187 -381 -2 -381 -3 -2 -490 -2 -490
-386 -3 -385 -2 0 561 0 562 398 391 c218 215 476 468 572 563 96 95 177 173
179 173 3 0 45 -39 95 -87z"/>
</g>
</svg>
